<svg xmlns="http://www.w3.org/2000/svg" width="329" height="160" viewBox="0 0 329 160">
    <defs>
        <style>
            .cls-2{fill:#706c96}.cls-3{fill:#f4ab08}.cls-4{fill:#1a1a1a;font-size:16px;font-family:Montserrat-Medium,Montserrat;font-weight:500}
        </style>
    </defs>
    <g id="Group_415" data-name="Group 415" transform="translate(-380 -2058)">
        <g id="KaomojiProject_Logo" transform="translate(333 2017)">
            <g id="Group_2" data-name="Group 2" transform="translate(47 41)">
                <rect id="Rectangle_570" data-name="Rectangle 570" width="160" height="160" rx="47.329" style="fill:#fff"/>
                <g id="Group_1" data-name="Group 1" transform="translate(64.048 32.43)">
                    <path id="Path_1" data-name="Path 1" class="cls-2" d="M151.754 102.946c0 7.472-7.473 16.095-15.808 16.095s-16.1-7.76-16.1-16.095c0-6.037 4.311-16.1 16.1-16.1 6.036.003 15.808 6.039 15.808 16.1z" transform="translate(-119.85 -86.849)"/>
                    <path id="Path_2" data-name="Path 2" class="cls-3" d="M135.946 174.155c-10.347 0-16.1-6.611-16.1-15.809 0-12.072 8.623-16.1 16.1-16.1 6.036 0 15.808 4.024 15.808 16.1 0 16.384-7.473 29.6-22.419 39.378l-4.6-3.449c11.21-8.048 16.671-15.234 16.671-21.845z" transform="translate(-119.85 -89.171)"/>
                </g>
            </g>
        </g>
        <g id="Group_413" data-name="Group 413" transform="translate(-2 6)">
            <circle id="Ellipse_37" data-name="Ellipse 37" class="cls-2" cx="16" cy="16" r="16" transform="translate(590 2086)"/>
            <text id="_706C96" data-name="#706C96" class="cls-4" transform="translate(634 2108)"><tspan x="0" y="0">#706C96</tspan></text>
        </g>
        <g id="Group_414" data-name="Group 414" transform="translate(-2 2)">
            <circle id="Ellipse_38" data-name="Ellipse 38" class="cls-3" cx="16" cy="16" r="16" transform="translate(590 2150)"/>
            <text id="_F4AB08" data-name="#F4AB08" class="cls-4" transform="translate(634 2172)"><tspan x="0" y="0">#F4AB08</tspan></text>
        </g>
    </g>
</svg>
