<svg xmlns="http://www.w3.org/2000/svg" width="636" height="364" viewBox="0 0 636 364">
    <defs>
        <style>
            .cls-1{fill:#ededed}.cls-2{fill:#1a1a1a;font-size:16px;font-family:NotoSansTC-Medium,Noto Sans TC;font-weight:500}.cls-3{fill:#e3e3e3;stroke:#d3d3d3}.cls-4{fill:#707070}.cls-5,.cls-7{fill:none}.cls-5{stroke:#707070}.cls-6,.cls-8{stroke:none}.cls-8{fill:#707070}
        </style>
    </defs>
    <g id="project-sekretmeeting-img-4" transform="translate(-373 -3279)">
        <g id="Group_392" data-name="Group 392" transform="translate(3.633 1669)">
            <rect id="Rectangle_70" data-name="Rectangle 70" class="cls-1" width="156" height="146" rx="10" transform="translate(369.367 1717)"/>
            <text id="預約會議列表" class="cls-2" transform="translate(399.367 1748)"><tspan x="0" y="0">預約會議列表</tspan></text>
        </g>
        <g id="Group_393" data-name="Group 393" transform="translate(54 1749)">
            <g id="Rectangle_70-2" data-name="Rectangle 70" class="cls-3" transform="translate(353 1717)">
                <rect class="cls-6" width="88" height="38" rx="10"/>
                <rect class="cls-7" x=".5" y=".5" width="87" height="37" rx="9.5"/>
            </g>
            <text id="預約會議" class="cls-2" transform="translate(365 1743)"><tspan x="0" y="0">預約會議</tspan></text>
        </g>
        <g id="Group_394" data-name="Group 394" transform="translate(275.633 1562)">
            <rect id="Rectangle_70-3" data-name="Rectangle 70" class="cls-1" width="156" height="146" rx="10" transform="translate(353.367 1717)"/>
            <text id="進行會議設定" class="cls-2" transform="translate(383.367 1748)"><tspan x="0" y="0">進行會議設定</tspan></text>
        </g>
        <g id="Group_398" data-name="Group 398" transform="translate(531.633 1780)">
            <rect id="Rectangle_70-4" data-name="Rectangle 70" class="cls-1" width="124" height="146" rx="10" transform="translate(353.367 1717)"/>
            <text id="會議頁面" class="cls-2" transform="translate(383.367 1748)"><tspan x="0" y="0">會議頁面</tspan></text>
        </g>
        <g id="Group_395" data-name="Group 395" transform="translate(310 1642)">
            <g id="Rectangle_70-5" data-name="Rectangle 70" class="cls-3" transform="translate(353 1717)">
                <rect class="cls-6" width="88" height="38" rx="10"/>
                <rect class="cls-7" x=".5" y=".5" width="87" height="37" rx="9.5"/>
            </g>
            <text id="預約會議-2" data-name="預約會議" class="cls-2" transform="translate(365 1743)"><tspan x="0" y="0">預約會議</tspan></text>
        </g>
        <g id="Group_396" data-name="Group 396" transform="translate(275.633 1780)">
            <rect id="Rectangle_70-6" data-name="Rectangle 70" class="cls-1" width="156" height="146" rx="10" transform="translate(353.367 1717)"/>
            <text id="會議詳細資訊" class="cls-2" transform="translate(383.367 1748)"><tspan x="0" y="0">會議詳細資訊</tspan></text>
        </g>
        <g id="Group_397" data-name="Group 397" transform="translate(310 1860)">
            <g id="Rectangle_70-7" data-name="Rectangle 70" class="cls-3" transform="translate(353 1717)">
                <rect class="cls-6" width="88" height="38" rx="10"/>
                <rect class="cls-7" x=".5" y=".5" width="87" height="37" rx="9.5"/>
            </g>
            <text id="參與會議" class="cls-2" transform="translate(365 1743)"><tspan x="0" y="0">參與會議</tspan></text>
        </g>
        <g id="Polygon_6" data-name="Polygon 6" class="cls-4">
            <path class="cls-6" d="M6.816 6.399H.85l2.983-5.37L6.816 6.4z" transform="rotate(90 -1362.729 1987.486)"/>
            <path class="cls-8" d="M3.833 2.06 1.7 5.898h4.266l-2.133-3.84m0-2.059 3.832 6.899H0L3.833 0z" transform="rotate(90 -1362.729 1987.486)"/>
        </g>
        <g id="Polygon_9" data-name="Polygon 9" class="cls-4">
            <path class="cls-6" d="M6.815 6.399H.85l2.983-5.37L6.815 6.4z" transform="rotate(-90 2013.838 1481.98)"/>
            <path class="cls-8" d="M3.833 2.06 1.699 5.898h4.267l-2.133-3.84m0-2.059 3.832 6.899H0L3.833 0z" transform="rotate(-90 2013.838 1481.98)"/>
        </g>
        <g id="Polygon_7" data-name="Polygon 7" class="cls-4">
            <path class="cls-6" d="M6.816 6.399H.85l2.983-5.37L6.816 6.4z" transform="rotate(90 -1470.706 2095.463)"/>
            <path class="cls-8" d="M3.833 2.06 1.7 5.898h4.266l-2.133-3.84m0-2.059 3.832 6.899H0L3.833 0z" transform="rotate(90 -1470.706 2095.463)"/>
        </g>
        <g id="Polygon_8" data-name="Polygon 8" class="cls-4">
            <path class="cls-6" d="M6.816 6.399H.85l2.983-5.37L6.816 6.4z" transform="rotate(90 -1342.859 2223.309)"/>
            <path class="cls-8" d="M3.833 2.06 1.7 5.898h4.266l-2.133-3.84m0-2.059 3.832 6.899H0L3.833 0z" transform="rotate(90 -1342.859 2223.309)"/>
        </g>
        <path id="Path_2" data-name="Path 2" class="cls-5" d="M-7408.558-8678c74.677 0 52.021-131.057 122.936-131.057" transform="translate(7903.558 12163)"/>
        <path id="Path_3" data-name="Path 3" class="cls-5" d="M-7316.173-8749.089c-61.64 0-30.782-59.968-92.386-59.968" transform="translate(7937.481 12319.089)"/>
        <path id="Path_5" data-name="Path 5" class="cls-5" d="M-7408.56-8694.905c86.632 0 43.263-114.151 129.846-114.151" transform="translate(7941.713 12187.057)"/>
        <path id="Path_4" data-name="Path 4" class="cls-5" d="M-7282.559-8809.057c-84.067 0-41.981 26-126 26" transform="translate(8159.559 12379.057)"/>
    </g>
</svg>
