<svg xmlns="http://www.w3.org/2000/svg" width="592" height="290" viewBox="0 0 592 290">
    <defs>
        <style>
            .cls-1{fill:#e3e3e3;stroke:#d3d3d3}.cls-2,.cls-4{fill:#1a1a1a}.cls-2{font-size:16px;font-family:NotoSansTC-Medium,Noto Sans TC;font-weight:500}.cls-4{font-size:14px;font-family:NotoSansTC-Regular,Noto Sans TC}.cls-5,.cls-8{fill:none}.cls-5{stroke:#707070}.cls-6{fill:#707070}.cls-7,.cls-9{stroke:none}.cls-9{fill:#707070}
        </style>
    </defs>
    <g id="project-sekretmeeting-img-2" transform="translate(-393 -1884)">
        <g id="Group_379" data-name="Group 379" transform="translate(40 220)">
            <g id="Rectangle_70" data-name="Rectangle 70" class="cls-1" transform="translate(353 1717)">
                <rect class="cls-7" width="88" height="38" rx="10"/>
                <rect class="cls-8" x=".5" y=".5" width="87" height="37" rx="9.5"/>
            </g>
            <text id="預約會議" class="cls-2" transform="translate(365 1743)"><tspan x="0" y="0">預約會議</tspan></text>
        </g>
        <g id="Group_381" data-name="Group 381" transform="translate(251.633 167)">
            <rect id="Rectangle_70-2" data-name="Rectangle 70" width="156" height="146" rx="10" transform="translate(353.367 1717)" style="fill:#ededed"/>
            <text id="進行會議設定" class="cls-2" transform="translate(383.367 1748)"><tspan x="0" y="0">進行會議設定</tspan></text>
        </g>
        <g id="Group_380" data-name="Group 380" transform="translate(532 220)">
            <g id="Rectangle_70-3" data-name="Rectangle 70" class="cls-1" transform="translate(353 1717)">
                <rect class="cls-7" width="88" height="38" rx="10"/>
                <rect class="cls-8" x=".5" y=".5" width="87" height="37" rx="9.5"/>
            </g>
            <text id="預約會議-2" data-name="預約會議" class="cls-2" transform="translate(365 1743)"><tspan x="0" y="0">預約會議</tspan></text>
        </g>
        <text id="以_按鈕_來開始輸入會議資訊_" data-name="以「按鈕」來開始輸入會議資訊。" class="cls-4" transform="translate(393 2054)"><tspan x="0" y="16">以「按鈕」來</tspan><tspan x="0" y="36">開始輸入會議</tspan><tspan x="0" y="56">資訊。</tspan></text>
        <text id="以_按鈕_來遞交所輸入的資訊並請系統開始進行會議的預約_" data-name="以「按鈕」來遞交所輸入的資訊並請系統開始進行會議的預約。" class="cls-4" transform="translate(885 2054)"><tspan x="0" y="16">以「按鈕」來遞</tspan><tspan x="0" y="36">交所輸入的資訊</tspan><tspan x="0" y="56">並請系統開始進</tspan><tspan x="0" y="76">行會議的預約。</tspan></text>
        <text id="以_頁面_來容納需要輸入資訊的輸入格_包含_會議名稱_及_會議開始時間_顯示會議相關資訊_以及進入選擇會議受邀人的頁面_" data-name="以「頁面」來容納需要輸入資訊的輸入格，包含「會議名稱」及「會議開始時間」、顯示會議相關資訊、以及進入選擇會議受邀人的頁面。" class="cls-4" transform="translate(605 2054)"><tspan x="0" y="16">以「頁面」來容納需要輸</tspan><tspan x="0" y="36">入資訊的輸入格，包含</tspan><tspan x="0" y="56">「會議名稱」及「會議開</tspan><tspan x="0" y="76">始時間」、顯示會議相關</tspan><tspan x="0" y="96">資訊、以及進入選擇會議</tspan><tspan x="0" y="116">受邀人的頁面。</tspan></text>
        <g id="Group_382" data-name="Group 382">
            <path id="Line_16" data-name="Line 16" class="cls-5" transform="translate(489.5 1957.5)" d="M0 0h105"/>
            <g id="Polygon_6" data-name="Polygon 6" class="cls-6">
                <path class="cls-7" d="M6.816 6.399H.85l2.983-5.37L6.816 6.4z" transform="rotate(90 -677.334 1276.333)"/>
                <path class="cls-9" d="M3.833 2.06 1.7 5.898h4.266l-2.133-3.84m0-2.059 3.832 6.899H0L3.833 0z" transform="rotate(90 -677.334 1276.333)"/>
            </g>
        </g>
        <g id="Group_383" data-name="Group 383" transform="translate(277.5)">
            <path id="Line_16-2" data-name="Line 16" class="cls-5" transform="translate(489.5 1957.5)" d="M0 0h105"/>
            <g id="Polygon_6-2" data-name="Polygon 6" class="cls-6">
                <path class="cls-7" d="M6.816 6.399H.85l2.983-5.37L6.816 6.4z" transform="rotate(90 -677.334 1276.333)"/>
                <path class="cls-9" d="M3.833 2.06 1.7 5.898h4.266l-2.133-3.84m0-2.059 3.832 6.899H0L3.833 0z" transform="rotate(90 -677.334 1276.333)"/>
            </g>
        </g>
    </g>
</svg>
