<svg xmlns="http://www.w3.org/2000/svg" width="570" height="310" viewBox="0 0 570 310">
    <defs>
        <style>
            .cls-4{fill:none}.cls-2{fill:#e0e0c3}.cls-3{fill:#717744}.cls-4{stroke:#1a1a1a}.cls-5,.cls-6{fill:#1a1a1a}.cls-6{font-size:12px;font-family:NotoSansTC-Regular,Noto Sans TC}
        </style>
    </defs>
    <g id="Group_58" data-name="Group 58" transform="translate(-419 -586)">
        <path id="Rectangle_48" data-name="Rectangle 48" transform="translate(419 586)" style="opacity:.122;fill:none" d="M0 0h570v310H0z"/>
        <g id="Group_57" data-name="Group 57" transform="translate(13)">
            <circle id="Ellipse_4" data-name="Ellipse 4" class="cls-2" cx="19.5" cy="19.5" r="19.5" transform="translate(426.7 662.5)"/>
            <circle id="Ellipse_6" data-name="Ellipse 6" class="cls-2" cx="19.5" cy="19.5" r="19.5" transform="translate(604.883 640.299)"/>
            <circle id="Ellipse_7" data-name="Ellipse 7" class="cls-2" cx="19.5" cy="19.5" r="19.5" transform="translate(568.7 754)"/>
            <circle id="Ellipse_8" data-name="Ellipse 8" class="cls-2" cx="19.5" cy="19.5" r="19.5" transform="translate(730.7 654)"/>
            <circle id="Ellipse_12" data-name="Ellipse 12" class="cls-2" cx="19.5" cy="19.5" r="19.5" transform="translate(656.7 847)"/>
            <circle id="Ellipse_11" data-name="Ellipse 11" class="cls-2" cx="19.5" cy="19.5" r="19.5" transform="translate(780.7 754)"/>
            <circle id="Ellipse_10" data-name="Ellipse 10" class="cls-2" cx="19.5" cy="19.5" r="19.5" transform="translate(443.7 819)"/>
            <circle id="Ellipse_5" data-name="Ellipse 5" class="cls-3" cx="19.5" cy="19.5" r="19.5" transform="translate(899.7 641)"/>
            <circle id="Ellipse_9" data-name="Ellipse 9" class="cls-3" cx="19.5" cy="19.5" r="19.5" transform="translate(936.7 786)"/>
            <g id="Group_50" data-name="Group 50" transform="rotate(-13 470.665 839.503)">
                <path id="Path_1" data-name="Path 1" class="cls-4" d="M-10489.944-11477s65.306-30.231 131.5 9.584" transform="translate(10994.944 12144.479)"/>
                <path id="Polygon_1" data-name="Polygon 1" class="cls-5" d="m3.272 0 3.272 5.454H0z" transform="rotate(135 180.585 472.19)"/>
            </g>
            <g id="Group_55" data-name="Group 55" transform="rotate(-13 596.716 -493.095)">
                <path id="Path_1-2" data-name="Path 1" class="cls-4" d="M-10489.944-11477s62.041-24.709 128.231 15.106" transform="translate(10994.944 12144.479)"/>
                <path id="Polygon_1-2" data-name="Polygon 1" class="cls-5" d="m3.272 0 3.272 5.454H0z" transform="rotate(135 177.917 474.275)"/>
            </g>
            <g id="Group_56" data-name="Group 56" transform="rotate(4.01 -723.053 5247.07)">
                <path id="Path_1-3" data-name="Path 1" class="cls-4" d="M-10489.944-11477s65.32-26.006 114.47 9.886" transform="translate(10994.944 12144.479)"/>
                <path id="Polygon_1-3" data-name="Polygon 1" class="cls-5" d="m3.272 0 3.272 5.454H0z" transform="rotate(134.03 168.572 472.115)"/>
            </g>
            <g id="Group_51" data-name="Group 51" transform="rotate(19 405.425 571.284)">
                <path id="Path_1-4" data-name="Path 1" class="cls-4" d="M-10489.944-11477s73.236-26.88 123.283 19.647" transform="translate(10993.022 12141.969)"/>
                <path id="Polygon_1-4" data-name="Polygon 1" class="cls-5" d="m3.272 0 3.272 5.454H0z" transform="rotate(135 174.004 473.413)"/>
            </g>
            <g id="Group_54" data-name="Group 54" transform="rotate(-180 387.382 393.078)">
                <path id="Path_1-5" data-name="Path 1" class="cls-4" d="M0 16.483S83.536 78.5 160.039 17.934" transform="translate(0 5.794)"/>
                <path id="Polygon_1-5" data-name="Polygon 1" class="cls-5" d="m3.272 0 3.272 5.454H0z" transform="rotate(61 65.225 147.09)"/>
            </g>
            <text id="邀請進入會議" class="cls-6" transform="rotate(-8 4803.619 -3185.957)"><tspan x="0" y="0">邀請進入會議</tspan></text>
            <text id="登入發生問題_請求協助" data-name="登入發生問題 請求協助" class="cls-6" transform="matrix(.998 -.07 .07 .998 832.59 611.151)"><tspan x="-36" y="0">登入發生問題</tspan><tspan x="-24" y="16">請求協助</tspan></text>
            <text id="發起會議發生問題_請求協助" data-name="發起會議發生問題 請求協助" class="cls-6" transform="rotate(5.13 -7979.15 10573.995)"><tspan x="-48" y="0">發起會議發生問題</tspan><tspan x="-24" y="16">請求協助</tspan></text>
            <text id="邀請進入會議-2" data-name="邀請進入會議" class="cls-6" transform="rotate(28 -1119.147 1350.608)"><tspan x="0" y="0">邀請進入會議</tspan></text>
            <text id="邀請進入會議-3" data-name="邀請進入會議" class="cls-6" transform="translate(656.016 723.853)"><tspan x="0" y="0">邀請進入會議</tspan></text>
            <text id="邀請進入_會議" data-name="邀請進入 會議" class="cls-6" transform="rotate(1 -44640.244 27558.66)"><tspan x="0" y="0">邀請進入</tspan><tspan x="0" y="16">會議</tspan></text>
            <text id="邀請進入_會議-2" data-name="邀請進入 會議" class="cls-6" transform="rotate(1 -45518.002 38044.301)"><tspan x="0" y="0">邀請進入</tspan><tspan x="0" y="16">會議</tspan></text>
            <g id="Group_53" data-name="Group 53" transform="rotate(161 324.77 466.718)">
                <path id="Path_1-6" data-name="Path 1" class="cls-4" d="M0 16.483s69.407 21.09 109.078-26.32" transform="translate(0 5.794)"/>
                <path id="Polygon_1-6" data-name="Polygon 1" class="cls-5" d="m3.272 0 3.272 5.454H0z" transform="rotate(32 70.736 184.745)"/>
            </g>
            <g id="Group_52" data-name="Group 52" transform="rotate(57 443.226 635.138)">
                <path id="Path_1-7" data-name="Path 1" class="cls-4" d="M-10489.944-11477s49.149 3.894 99.612 47.06" transform="translate(10994.944 12144.479)"/>
                <path id="Polygon_1-7" data-name="Polygon 1" class="cls-5" d="m3.272 0 3.272 5.454H0z" transform="rotate(135 156.829 483.777)"/>
            </g>
        </g>
    </g>
</svg>
