<svg xmlns="http://www.w3.org/2000/svg" xmlns:xlink="http://www.w3.org/1999/xlink" width="689" height="833" viewBox="0 0 689 833">
    <defs>
        <clipPath id="clip-path">
            <path id="Rectangle_83" data-name="Rectangle 83" class="cls-1" d="M0 0h26v49H0z"/>
        </clipPath>
        <clipPath id="clip-path-2">
            <path id="Rectangle_83-2" data-name="Rectangle 83" class="cls-1" d="M0 0h26v336H0z"/>
        </clipPath>
        <clipPath id="clip-path-3">
            <path id="Rectangle_83-3" data-name="Rectangle 83" class="cls-1" d="M0 0h26v673H0z"/>
        </clipPath>
        <clipPath id="clip-path-4">
            <path id="Rectangle_83-4" data-name="Rectangle 83" class="cls-1" d="M0 0h26v144H0z"/>
        </clipPath>
        <clipPath id="clip">
            <use xlink:href="#fill"/>
        </clipPath>
        <style>
            .cls-1{fill:#fafafa}.cls-2{fill:#717744}.cls-3{fill:#fff;font-size:16px;font-family:NotoSansTC-Medium,Noto Sans TC;font-weight:500}.cls-4{clip-path:url(#clip-path)}.cls-15,.cls-5,.cls-9{fill:none}.cls-5{stroke:#d0d0d0}.cls-6{fill:#e0e0c3;opacity:.6}.cls-10,.cls-7,.cls-8{fill:#1a1a1a}.cls-7{font-size:14px}.cls-10,.cls-7{font-family:NotoSansTC-Regular,Noto Sans TC}.cls-9{stroke:#1a1a1a}.cls-10{font-size:12px}.cls-14{stroke:none}
        </style>
    </defs>
    <g id="project_svc-img-11" transform="translate(-379 -5249)">
        <g id="Group_77" data-name="Group 77" transform="translate(158 3532)">
            <rect id="Rectangle_70" data-name="Rectangle 70" class="cls-2" width="80" height="38" rx="16" transform="translate(353 1717)"/>
            <text id="登入頁" class="cls-3" transform="translate(369 1743)"><tspan x="0" y="0">登入頁</tspan></text>
        </g>
        <g id="Group_78" data-name="Group 78" transform="translate(150 3568)">
            <rect id="Rectangle_72" data-name="Rectangle 72" class="cls-2" width="96" height="38" rx="16" transform="translate(353 1789)"/>
            <text id="已登出頁" class="cls-3" transform="translate(369 1815)"><tspan x="0" y="0">已登出頁</tspan></text>
        </g>
        <g id="Group_141" data-name="Group 141" transform="translate(36)">
            <g id="Group_140" data-name="Group 140" transform="translate(-69 -11)">
                <g id="Group_102" data-name="Group 102" transform="translate(137 2692)">
                    <g id="Mask_Group_1" data-name="Mask Group 1" class="cls-4" transform="translate(700 2617)">
                        <g id="Rectangle_85" data-name="Rectangle 85" class="cls-5">
                            <rect class="cls-14" width="79" height="49" rx="12"/>
                            <rect class="cls-15" x=".5" y=".5" width="78" height="48" rx="11.5"/>
                        </g>
                    </g>
                </g>
                <g id="Group_99" data-name="Group 99" transform="translate(137 2692)">
                    <rect id="Rectangle_70-2" data-name="Rectangle 70" class="cls-6" width="130" height="32" rx="12" transform="translate(726 2601)"/>
                    <text id="下載資料備份檔" class="cls-7" transform="translate(742 2623)"><tspan x="0" y="0">下載資料備份檔</tspan></text>
                </g>
                <g id="Group_136" data-name="Group 136" transform="translate(137 2740)">
                    <rect id="Rectangle_70-3" data-name="Rectangle 70" class="cls-6" width="130" height="32" rx="12" transform="translate(726 2601)"/>
                    <text id="上傳資料備份檔" class="cls-7" transform="translate(742 2623)"><tspan x="0" y="0">上傳資料備份檔</tspan></text>
                </g>
                <path id="Line_4" data-name="Line 4" class="cls-5" transform="translate(806 5332.5)" d="M0 0h31.5"/>
            </g>
            <g id="Group_76" data-name="Group 76" transform="translate(157 3552)">
                <rect id="Rectangle_71" data-name="Rectangle 71" class="cls-2" width="64" height="38" rx="16" transform="translate(516 1751)"/>
                <text id="首頁" class="cls-3" transform="translate(532 1777)"><tspan x="0" y="0">首頁</tspan></text>
            </g>
        </g>
        <g id="Group_79" data-name="Group 79" transform="translate(-40 3540.729)">
            <path id="Polygon_2" data-name="Polygon 2" class="cls-8" d="m3.272 0 3.272 5.454H0z" transform="rotate(90 -591.774 1132.226)"/>
            <g id="Rectangle_73" data-name="Rectangle 73" class="cls-9" transform="translate(487 1727)">
                <path class="cls-14" d="M0 0h49v1H0z"/>
                <rect class="cls-15" x=".5" y=".5" width="48"/>
            </g>
        </g>
        <g id="Group_82" data-name="Group 82" transform="rotate(-90 2329.7 3506.7)">
            <path id="Polygon_2-2" data-name="Polygon 2" class="cls-8" d="m3.272 0 3.272 5.454H0z" transform="rotate(90 -591.774 1132.226)"/>
            <g id="Rectangle_73-2" data-name="Rectangle 73" class="cls-9" transform="translate(490 1727)">
                <path class="cls-14" d="M0 0h46v1H0z"/>
                <rect class="cls-15" x=".5" y=".5" width="45"/>
            </g>
        </g>
        <g id="Group_80" data-name="Group 80" transform="rotate(30 -6085.545 3744.745)">
            <path id="Polygon_2-3" data-name="Polygon 2" class="cls-8" d="m3.272 0 3.272 5.454H0z" transform="rotate(90 -591.774 1132.226)"/>
            <g id="Rectangle_73-3" data-name="Rectangle 73" class="cls-9" transform="translate(470 1727)">
                <path class="cls-14" d="M0 0h66v1H0z"/>
                <rect class="cls-15" x=".5" y=".5" width="65"/>
            </g>
        </g>
        <g id="Group_81" data-name="Group 81" transform="rotate(150 -387.701 2765.138)">
            <path id="Polygon_2-4" data-name="Polygon 2" class="cls-8" d="m3.272 0 3.272 5.454H0z" transform="rotate(90 26.726 26.726)"/>
            <g id="Rectangle_73-4" data-name="Rectangle 73" class="cls-9" transform="translate(-11 2.545)">
                <path id="fill" class="cls-14" d="M0 0h59.999v1H0z"/>
                <path d="M0 .5h60m-.5-.5v1m.5-.5H0m.5.5V0" style="clip-path:url(#clip);fill:none"/>
            </g>
        </g>
        <text id="進入後台時" class="cls-10" transform="translate(379 5273)"><tspan x="0" y="0">進入後台時</tspan></text>
        <text id="登入成功" class="cls-10" transform="translate(625 5282)"><tspan x="0" y="0">登入成功</tspan></text>
        <text id="登出" class="cls-10" transform="translate(643 5381)"><tspan x="0" y="0">登出</tspan></text>
        <text id="返回登入頁" class="cls-10" transform="translate(481 5327)"><tspan x="0" y="0">返回登入頁</tspan></text>
        <g id="Group_102-2" data-name="Group 102" transform="translate(184 2905)">
            <g id="Mask_Group_1-2" data-name="Mask Group 1" transform="translate(700 2617)" style="clip-path:url(#clip-path-2)">
                <g id="Rectangle_85-2" data-name="Rectangle 85" class="cls-5">
                    <rect class="cls-14" width="79" height="336" rx="12"/>
                    <rect class="cls-15" x=".5" y=".5" width="78" height="335" rx="11.5"/>
                </g>
            </g>
        </g>
        <g id="Group_144" data-name="Group 144" transform="translate(-17 2704)">
            <g id="Mask_Group_1-3" data-name="Mask Group 1" transform="translate(700 2617)" style="clip-path:url(#clip-path-3)">
                <g id="Rectangle_85-3" data-name="Rectangle 85" class="cls-5">
                    <rect class="cls-14" width="79" height="673" rx="12"/>
                    <rect class="cls-15" x=".5" y=".5" width="78" height="672" rx="11.5"/>
                </g>
            </g>
        </g>
        <g id="Group_98" data-name="Group 98" transform="translate(356 3954)">
            <rect id="Rectangle_70-4" data-name="Rectangle 70" class="cls-2" width="144" height="38" rx="16" transform="translate(353 1717)"/>
            <text id="裝置帳戶管理頁" class="cls-3" transform="translate(369 1743)"><tspan x="0" y="0">裝置帳戶管理頁</tspan></text>
        </g>
        <g id="Group_99-2" data-name="Group 99" transform="translate(184 2905)">
            <rect id="Rectangle_70-5" data-name="Rectangle 70" class="cls-6" width="116" height="32" rx="12" transform="translate(726 2601)"/>
            <text id="新增裝置帳戶" class="cls-7" transform="translate(742 2623)"><tspan x="0" y="0">新增裝置帳戶</tspan></text>
        </g>
        <g id="Group_100" data-name="Group 100" transform="translate(184 2905)">
            <rect id="Rectangle_70-6" data-name="Rectangle 70" class="cls-6" width="144" height="32" rx="12" transform="translate(726 2649)"/>
            <text id="編輯裝置帳戶名稱" class="cls-7" transform="translate(742 2671)"><tspan x="0" y="0">編輯裝置帳戶名稱</tspan></text>
        </g>
        <g id="Group_101" data-name="Group 101" transform="translate(184 2905)">
            <rect id="Rectangle_70-7" data-name="Rectangle 70" class="cls-6" width="116" height="32" rx="12" transform="translate(726 2697)"/>
            <text id="刪除裝置帳戶" class="cls-7" transform="translate(742 2719)"><tspan x="0" y="0">刪除裝置帳戶</tspan></text>
        </g>
        <path id="Line_4-2" data-name="Line 4" class="cls-5" transform="translate(853 5690.5)" d="M0 0h31.5"/>
        <path id="Line_8" data-name="Line 8" class="cls-5" transform="translate(884.5 5570.5)" d="M0 0h25.5"/>
        <path id="Line_14" data-name="Line 14" class="cls-5" transform="translate(683.5 5434)" d="M0 0h25.5"/>
        <path id="Line_15" data-name="Line 15" class="cls-5" transform="translate(683.5 5690)" d="M0 0h25.5"/>
        <path id="Line_11" data-name="Line 11" class="cls-5" transform="translate(884.5 5666.5)" d="M0 0h25.5"/>
        <path id="Line_12" data-name="Line 12" class="cls-5" transform="translate(884.5 5762.5)" d="M0 0h25.5"/>
        <path id="Line_9" data-name="Line 9" class="cls-5" transform="translate(884.5 5618)" d="M0 0h25.5"/>
        <path id="Line_10" data-name="Line 10" class="cls-5" transform="translate(884.5 5714.5)" d="M0 0h25.5"/>
        <path id="Line_13" data-name="Line 13" class="cls-5" transform="translate(884.5 5810.5)" d="M0 0h25.5"/>
        <g id="Group_99-3" data-name="Group 99" transform="translate(184 3049)">
            <rect id="Rectangle_70-8" data-name="Rectangle 70" class="cls-6" width="158" height="32" rx="12" transform="translate(726 2601)"/>
            <text id="將裝置帳戶加入群組" class="cls-7" transform="translate(742 2623)"><tspan x="0" y="0">將裝置帳戶加入群組</tspan></text>
        </g>
        <g id="Group_118" data-name="Group 118" transform="translate(184 3097)">
            <rect id="Rectangle_70-9" data-name="Rectangle 70" class="cls-6" width="158" height="32" rx="12" transform="translate(726 2601)"/>
            <text id="將裝置帳戶移出群組" class="cls-7" transform="translate(742 2623)"><tspan x="0" y="0">將裝置帳戶移出群組</tspan></text>
        </g>
        <g id="Group_143" data-name="Group 143" transform="translate(5 190)">
            <g id="Group_124" data-name="Group 124" transform="translate(163 3115)">
                <g id="Mask_Group_1-4" data-name="Mask Group 1" transform="translate(700 2617)" style="clip-path:url(#clip-path-4)">
                    <g id="Rectangle_85-4" data-name="Rectangle 85" class="cls-5">
                        <rect class="cls-14" width="79" height="144" rx="12"/>
                        <rect class="cls-15" x=".5" y=".5" width="78" height="143" rx="11.5"/>
                    </g>
                </g>
            </g>
            <g id="Group_119" data-name="Group 119" transform="translate(351 4068)">
                <rect id="Rectangle_70-10" data-name="Rectangle 70" class="cls-2" width="112" height="38" rx="16" transform="translate(353 1717)"/>
                <text id="群組管理頁" class="cls-3" transform="translate(369 1743)"><tspan x="0" y="0">群組管理頁</tspan></text>
            </g>
            <g id="Group_120" data-name="Group 120" transform="translate(163 3211)">
                <rect id="Rectangle_70-11" data-name="Rectangle 70" class="cls-6" width="158" height="32" rx="12" transform="translate(726 2601)"/>
                <text id="將裝置帳戶加入群組-2" data-name="將裝置帳戶加入群組" class="cls-7" transform="translate(742 2623)"><tspan x="0" y="0">將裝置帳戶加入群組</tspan></text>
            </g>
            <g id="Group_123" data-name="Group 123" transform="translate(163 3115)">
                <rect id="Rectangle_70-12" data-name="Rectangle 70" class="cls-6" width="88" height="32" rx="12" transform="translate(726 2601)"/>
                <text id="新增群組" class="cls-7" transform="translate(742 2623)"><tspan x="0" y="0">新增群組</tspan></text>
            </g>
            <g id="Group_121" data-name="Group 121" transform="translate(163 3259)">
                <rect id="Rectangle_70-13" data-name="Rectangle 70" class="cls-6" width="158" height="32" rx="12" transform="translate(726 2601)"/>
                <text id="將裝置帳戶移出群組-2" data-name="將裝置帳戶移出群組" class="cls-7" transform="translate(742 2623)"><tspan x="0" y="0">將裝置帳戶移出群組</tspan></text>
            </g>
            <g id="Group_122" data-name="Group 122" transform="translate(163 3163)">
                <rect id="Rectangle_70-14" data-name="Rectangle 70" class="cls-6" width="88" height="32" rx="12" transform="translate(726 2601)"/>
                <text id="刪除群組" class="cls-7" transform="translate(742 2623)"><tspan x="0" y="0">刪除群組</tspan></text>
            </g>
            <path id="Line_7" data-name="Line 7" class="cls-5" transform="translate(816 5804)" d="M0 0h47"/>
            <path id="Line_5" data-name="Line 5" class="cls-5" transform="translate(863 5782)" d="M0 0h26"/>
            <path id="Line_6" data-name="Line 6" class="cls-5" transform="translate(863 5829)" d="M0 0h26"/>
        </g>
        <g id="Group_99-4" data-name="Group 99" transform="translate(184 3145)">
            <rect id="Rectangle_70-15" data-name="Rectangle 70" class="cls-6" width="142" height="32" rx="12" transform="translate(726 2601)"/>
            <text id="停_啟用裝置帳戶" data-name="停 / 啟用裝置帳戶" class="cls-7" transform="translate(742 2623)"><tspan x="0" y="0">停 / 啟用裝置帳戶</tspan></text>
        </g>
        <g id="Group_100-2" data-name="Group 100" transform="translate(184 3145)">
            <rect id="Rectangle_70-16" data-name="Rectangle 70" class="cls-6" width="116" height="32" rx="12" transform="translate(726 2649)"/>
            <text id="解除裝置綁定" class="cls-7" transform="translate(742 2671)"><tspan x="0" y="0">解除裝置綁定</tspan></text>
        </g>
        <g id="Group_101-2" data-name="Group 101" transform="translate(184 3145)">
            <rect id="Rectangle_70-17" data-name="Rectangle 70" class="cls-6" width="87" height="32" rx="12" transform="translate(726 2697)"/>
            <text id="重計CNT" class="cls-7" transform="translate(742 2719)"><tspan x="0" y="0">重計</tspan><tspan y="0">CNT</tspan></text>
        </g>
        <g id="Group_130" data-name="Group 130" transform="translate(217 2765)">
            <g id="Group_102-3" data-name="Group 102" transform="translate(-33 28)">
                <g id="Mask_Group_1-5" data-name="Mask Group 1" class="cls-4" transform="translate(700 2617)">
                    <g id="Rectangle_85-5" data-name="Rectangle 85" class="cls-5">
                        <rect class="cls-14" width="79" height="49" rx="12"/>
                        <rect class="cls-15" x=".5" y=".5" width="78" height="48" rx="11.5"/>
                    </g>
                </g>
            </g>
            <g id="Group_98-2" data-name="Group 98" transform="translate(139 932)">
                <rect id="Rectangle_70-18" data-name="Rectangle 70" class="cls-2" width="144" height="38" rx="16" transform="translate(353 1717)"/>
                <text id="視訊會議管理頁" class="cls-3" transform="translate(369 1743)"><tspan x="0" y="0">視訊會議管理頁</tspan></text>
            </g>
            <g id="Group_99-5" data-name="Group 99" transform="translate(-33 28)">
                <rect id="Rectangle_70-19" data-name="Rectangle 70" class="cls-6" width="158" height="32" rx="12" transform="translate(726 2601)"/>
                <text id="查看進行中會議資訊" class="cls-7" transform="translate(742 2623)"><tspan x="0" y="0">查看進行中會議資訊</tspan></text>
            </g>
            <g id="Group_100-3" data-name="Group 100" transform="translate(-33 28)">
                <rect id="Rectangle_70-20" data-name="Rectangle 70" class="cls-6" width="116" height="32" rx="12" transform="translate(726 2649)"/>
                <text id="強制關閉會議" class="cls-7" transform="translate(742 2671)"><tspan x="0" y="0">強制關閉會議</tspan></text>
            </g>
            <path id="Line_4-3" data-name="Line 4" class="cls-5" transform="translate(636 2668.5)" d="M0 0h31.5"/>
        </g>
    </g>
</svg>
